HIERARCHY
ROOT Hips
{
	OFFSET 0.000000 0.000000 0.000000
	CHANNELS 6 Xposition Yposition Zposition Zrotation Yrotation Xrotation
	JOINT LHipJoint
	{
		OFFSET 0.000000 0.000000 0.000000
		CHANNELS 3 Zrotation Yrotation Xrotation
		JOINT LeftUpLeg
		{
			OFFSET 0.076937 -0.101296 0.047373
			CHANNELS 3 Zrotation Yrotation Xrotation
			JOINT LeftLeg
			{
				OFFSET 0.138181 -0.379650 0.000000
				CHANNELS 3 Zrotation Yrotation Xrotation
				JOINT LeftFoot
				{
					OFFSET 0.144621 -0.397343 0.000000
					CHANNELS 3 Zrotation Yrotation Xrotation
					JOINT LeftToeBase
					{
						OFFSET 0.008898 -0.024446 0.131094
						CHANNELS 3 Zrotation Yrotation Xrotation
						End Site
						{
							OFFSET 0.000000 0.000000 0.000000
						}
					}
				}
			}
		}
	}
	JOINT RHipJoint
	{
		OFFSET 0.000000 0.000000 0.000000
		CHANNELS 3 Zrotation Yrotation Xrotation
		JOINT RightUpLeg
		{
			OFFSET -0.073689 -0.101296 0.047373
			CHANNELS 3 Zrotation Yrotation Xrotation
			JOINT RightLeg
			{
				OFFSET -0.143511 -0.394292 0.000000
				CHANNELS 3 Zrotation Yrotation Xrotation
				JOINT RightFoot
				{
					OFFSET -0.144963 -0.398282 0.000000
					CHANNELS 3 Zrotation Yrotation Xrotation
					JOINT RightToeBase
					{
						OFFSET -0.009298 -0.025546 0.133386
						CHANNELS 3 Zrotation Yrotation Xrotation
						End Site
						{
							OFFSET 0.000000 0.000000 0.000000
						}
					}
				}
			}
		}
	}
	JOINT LowerBack
	{
		OFFSET 0.000000 0.000000 0.000000
		CHANNELS 3 Zrotation Yrotation Xrotation
		JOINT Spine
		{
			OFFSET 0.001596 0.114897 -0.010915
			CHANNELS 3 Zrotation Yrotation Xrotation
			JOINT Spine1
			{
				OFFSET 0.003201 0.115645 -0.002413
				CHANNELS 3 Zrotation Yrotation Xrotation
				JOINT Neck
				{
					OFFSET 0.000000 0.000000 0.000000
					CHANNELS 3 Zrotation Yrotation Xrotation
					JOINT Neck1
					{
						OFFSET -0.003058 0.098565 0.009709
						CHANNELS 3 Zrotation Yrotation Xrotation
						JOINT Head
						{
							OFFSET 0.005874 0.099418 -0.006997
							CHANNELS 3 Zrotation Yrotation Xrotation
							End Site
							{
								OFFSET 0.000000 0.000000 0.000000
							}
						}
					}
				}
				JOINT LeftShoulder
				{
					OFFSET 0.000000 0.000000 0.000000
					CHANNELS 3 Zrotation Yrotation Xrotation
					JOINT LeftArm
					{
						OFFSET 0.189788 0.067783 -0.017566
						CHANNELS 3 Zrotation Yrotation Xrotation
						JOINT LeftForeArm
						{
							OFFSET 0.281260 -0.000000 -0.000000
							CHANNELS 3 Zrotation Yrotation Xrotation
							JOINT LeftHand
							{
								OFFSET 0.196626 -0.000000 -0.000000
								CHANNELS 3 Zrotation Yrotation Xrotation
								JOINT LeftFingerBase
								{
									OFFSET 0.000000 0.000000 0.000000
									CHANNELS 3 Zrotation Yrotation Xrotation
									JOINT LeftHandIndex1
									{
										OFFSET 0.040372 -0.000000 -0.000000
										CHANNELS 3 Zrotation Yrotation Xrotation
										End Site
										{
											OFFSET 0.000000 0.000000 0.000000
										}
									}
								}
								JOINT LThumb
								{
									OFFSET 0.000000 0.000000 0.000000
									CHANNELS 3 Zrotation Yrotation Xrotation
									End Site
									{
										OFFSET 0.000000 0.000000 0.000000
									}
								}
							}
						}
					}
				}
				JOINT RightShoulder
				{
					OFFSET 0.000000 0.000000 0.000000
					CHANNELS 3 Zrotation Yrotation Xrotation
					JOINT RightArm
					{
						OFFSET -0.177042 0.077557 -0.022840
						CHANNELS 3 Zrotation Yrotation Xrotation
						JOINT RightForeArm
						{
							OFFSET -0.295874 -0.000000 -0.000000
							CHANNELS 3 Zrotation Yrotation Xrotation
							JOINT RightHand
							{
								OFFSET -0.194403 -0.000000 -0.000000
								CHANNELS 3 Zrotation Yrotation Xrotation
								JOINT RightFingerBase
								{
									OFFSET 0.000000 0.000000 0.000000
									CHANNELS 3 Zrotation Yrotation Xrotation
									JOINT RightHandIndex1
									{
										OFFSET -0.035138 -0.000000 -0.000000
										CHANNELS 3 Zrotation Yrotation Xrotation
										End Site
										{
											OFFSET 0.000000 0.000000 0.000000
										}
									}
								}
								JOINT RThumb
								{
									OFFSET 0.000000 0.000000 0.000000
									CHANNELS 3 Zrotation Yrotation Xrotation
									End Site
									{
										OFFSET 0.000000 0.000000 0.000000
									}
								}
							}
						}
					}
				}
			}
		}
	}
}
MOTION
Frames: 11
Frame Time: 0.033333
31.786662 0.989267 2.721711 -0.683279 -37.354557 3.278244 -2.700078 22.853572 1.822861 -16.514012 -1.463146 -14.191532 1.276534 2.001627 23.536623 25.685792 -6.264795 -3.054255 -6.005313 1.609434 -8.520939 -2.302481 -26.752517 0.475551 22.746417 -3.395967 -8.485158 -3.435907 -0.445050 20.569667 -28.942390 12.794894 -12.699843 6.751491 -4.855408 -9.167710 2.191530 3.954775 9.234118 4.513494 4.000775 20.225521 -8.249579 -2.608697 -40.839125 -5.661409 8.184974 -12.458754 7.902666 7.117276 20.771417 -0.049308 1.430019 -3.196183 0.809449 30.235850 4.781167 -73.508299 -7.723193 57.629638 -3.306369 -31.546392 14.277764 4.865254 -6.286109 6.201190 -4.463585 15.484103 0.147406 0.002832 -0.011719 0.007424 0.002486 -0.009378 -0.005683 -1.582027 -43.696387 -5.435121 74.276743 -0.149115 63.027167 3.908757 27.126438 16.505440 -3.472617 10.680487 6.870007 6.138319 -15.466877 -0.383814 -0.027634 -0.040191 0.024715 -0.009964 0.002708 0.009807 
31.786607 0.989851 2.721672 -0.674332 -37.329155 3.243357 -2.703363 22.935409 1.742454 -16.586538 -0.981995 -13.945068 1.215027 1.931452 23.066294 25.679113 -6.530001 -3.236609 -6.072399 1.562551 -8.483592 -2.342096 -26.729787 0.526782 22.843428 -3.410085 -8.161378 -3.334783 -0.385846 20.250942 -28.955032 12.705792 -12.934298 6.739166 -4.886602 -9.110022 2.249580 3.879164 9.125910 4.286915 3.887943 20.224256 -8.147403 -2.570783 -41.205886 -5.638523 8.246371 -12.372347 7.917012 7.208469 20.954870 -0.027779 1.519956 -3.107063 0.624975 30.716840 4.938949 -73.331020 -7.585008 57.816897 -3.192596 -29.074580 14.154100 4.731273 -6.005845 6.207807 -4.498830 15.638595 0.140284 0.002656 -0.011476 0.007397 0.002194 -0.009541 -0.005554 -1.283526 -43.989324 -5.342355 73.999228 -0.208624 63.460700 3.380635 24.978279 16.750621 -3.461315 10.126099 7.034516 6.315136 -15.607071 -0.383721 -0.027610 -0.040702 0.024987 -0.009989 0.002134 0.009888 
31.786629 0.990654 2.721656 -0.612467 -37.406155 3.157462 -2.679621 23.122741 1.739881 -16.755030 -0.549662 -13.621606 1.166705 1.898405 22.549020 25.653242 -6.694695 -3.815483 -6.059988 1.495970 -8.406535 -2.476901 -26.694043 0.588101 22.981121 -3.340376 -7.774912 -3.262129 -0.307235 19.916124 -29.056546 12.574731 -13.158107 6.692936 -4.903173 -9.050039 2.302703 3.675914 8.919871 3.871658 3.653086 20.291648 -7.912443 -2.420706 -41.558344 -5.536247 7.990232 -12.264850 7.870129 7.002940 21.045222 -0.058092 1.485078 -3.093993 0.499789 31.415903 5.036579 -73.204170 -7.446399 57.849386 -3.200121 -27.428687 14.067273 4.507389 -5.953997 6.092327 -4.509580 15.722050 0.134294 0.002403 -0.011169 0.007574 0.002214 -0.009732 -0.005548 -0.974987 -44.101052 -5.213116 73.847068 -0.123030 63.664019 3.007911 23.578987 16.902270 -3.510132 9.658450 7.173022 6.391425 -15.707452 -0.377893 -0.027762 -0.040804 0.025408 -0.009920 0.001616 0.010081 
31.786696 0.991227 2.721610 -0.599686 -37.396777 3.113776 -2.604745 23.225509 1.707314 -16.907380 -0.244752 -13.306788 1.109996 1.892144 22.170862 25.655848 -6.803659 -4.299297 -6.014449 1.432665 -8.328517 -2.591675 -26.667330 0.709833 23.149187 -3.173656 -7.476210 -3.171928 -0.245740 19.615535 -29.124653 12.375871 -13.268514 6.607178 -4.882441 -8.978073 2.412030 3.583772 8.674967 3.543820 3.522933 20.331964 -7.801596 -2.301707 -41.708749 -5.529411 8.138105 -12.186214 7.967628 7.131661 21.114555 -0.028470 1.526137 -3.100964 0.388991 31.667082 5.163146 -73.140157 -7.379924 57.907493 -3.092573 -26.355380 14.039459 4.347256 -5.987614 6.012853 -4.550200 15.778209 0.124235 0.002114 -0.010884 0.007714 0.002098 -0.009711 -0.005473 -0.705324 -44.269914 -5.144664 73.704843 -0.093514 63.651955 2.706008 22.801077 16.988484 -3.581145 9.354546 7.273738 6.391603 -15.773348 -0.371632 -0.027739 -0.041047 0.025696 -0.009827 0.001285 0.010224 
31.786804 0.991875 2.721594 -0.533908 -37.467971 3.049547 -2.512730 23.362401 1.743040 -17.071910 0.044502 -12.952731 1.050925 1.893339 21.684477 25.616482 -6.858858 -4.993020 -5.919289 1.350197 -8.211933 -2.750550 -26.591783 0.811155 23.282790 -2.944301 -7.182564 -3.076419 -0.189477 19.347245 -29.213623 12.180972 -13.343573 6.519081 -4.861615 -8.912949 2.496808 3.393678 8.346599 3.082683 3.296950 20.408013 -7.550282 -2.095031 -41.817499 -5.428271 7.908864 -12.095068 7.951977 6.918271 21.120964 -0.062354 1.454357 -3.150054 0.284424 32.118127 5.243517 -73.078207 -7.282051 57.875393 -3.000640 -25.489399 14.047472 4.182559 -6.118620 5.943754 -4.573776 15.811058 0.118620 0.001734 -0.010583 0.007943 0.002200 -0.009788 -0.005465 -0.387740 -44.199109 -4.997039 73.553761 0.106405 63.552731 2.408991 22.188185 17.035314 -3.699588 9.034035 7.394011 6.337835 -15.834588 -0.361657 -0.027789 -0.041148 0.026072 -0.009694 0.000898 0.010428 
31.786952 0.992278 2.721563 -0.523158 -37.463830 3.007113 -2.376396 23.437014 1.762803 -17.192110 0.262557 -12.607425 0.986821 1.916313 21.307326 25.582312 -6.875742 -5.559971 -5.817159 1.270873 -8.103218 -2.872737 -26.528989 0.958438 23.422703 -2.662325 -6.960341 -2.973711 -0.146727 19.108579 -29.264073 11.952422 -13.350902 6.411391 -4.815310 -8.838331 2.621715 3.297859 8.036769 2.724923 3.164024 20.446754 -7.401295 -1.941682 -41.798736 -5.404409 7.984900 -12.025588 8.029306 6.971679 21.122569 -0.049265 1.461772 -3.198983 0.168527 32.245029 5.348769 -73.037995 -7.237479 57.878122 -2.798976 -24.813648 14.079315 4.068299 -6.242481 5.905175 -4.606753 15.838544 0.111915 0.001408 -0.010288 0.008153 0.002202 -0.009752 -0.005424 -0.092668 -44.193401 -4.886930 73.384118 0.247884 63.339413 2.121181 21.793909 17.064664 -3.809995 8.804499 7.486762 6.256250 -15.878482 -0.352707 -0.027727 -0.041353 0.026346 -0.009592 0.000636 0.010557 
31.787057 0.992312 2.721514 -0.515935 -37.460289 2.982925 -2.286885 23.448692 1.788428 -17.223957 0.360782 -12.419851 0.942891 1.936994 21.093082 25.535599 -6.837470 -5.797012 -5.751886 1.229735 -8.038240 -2.930241 -26.482504 1.041949 23.507169 -2.476589 -6.841823 -2.916488 -0.138503 18.992055 -29.282599 11.824338 -13.347319 6.348811 -4.784096 -8.799119 2.668129 3.259595 7.842438 2.532052 3.106205 20.454147 -7.305959 -1.845727 -41.721954 -5.395539 8.057402 -11.996027 8.086807 7.025412 21.104291 -0.037789 1.467211 -3.236440 0.095960 32.240095 5.403830 -73.019951 -7.230936 57.856395 -2.641206 -24.471641 14.113986 4.010627 -6.329063 5.889924 -4.626022 15.847609 0.109115 0.001253 -0.010135 0.008292 0.002186 -0.009744 -0.005404 0.089318 -44.149186 -4.797677 73.257021 0.331406 63.146951 1.955848 21.626572 17.044462 -3.868159 8.690199 7.517337 6.189337 -15.901631 -0.345999 -0.027672 -0.041494 0.026465 -0.009540 0.000517 0.010592 
31.787200 0.992622 2.721512 -0.458924 -37.503723 2.954254 -2.184903 23.511728 1.859780 -17.279973 0.506879 -12.167006 0.902177 1.957431 20.700696 25.445217 -6.781374 -6.349300 -5.640206 1.152248 -7.928375 -3.054984 -26.389095 1.102064 23.594936 -2.226268 -6.681854 -2.849125 -0.117930 18.827228 -29.353175 11.633713 -13.333031 6.258148 -4.749996 -8.738270 2.720330 3.121846 7.540522 2.198393 2.936923 20.518029 -7.095100 -1.686122 -41.691807 -5.311606 7.852297 -11.937809 8.057521 6.831313 21.080577 -0.070873 1.405417 -3.288260 0.002083 32.475759 5.435402 -72.988620 -7.182143 57.790382 -2.497411 -24.011888 14.132107 3.929654 -6.462296 5.872093 -4.631318 15.857648 0.108910 0.000914 -0.009929 0.008490 0.002297 -0.009810 -0.005401 0.355064 -43.986129 -4.643259 73.080073 0.562733 62.966069 1.737526 21.353507 17.045903 -3.984313 8.482519 7.609894 6.098724 -15.938758 -0.337129 -0.027663 -0.041627 0.026682 -0.009422 0.000260 0.010746 
31.787384 0.992829 2.721512 -0.454034 -37.495101 2.925985 -2.034881 23.557180 1.928599 -17.310095 0.626006 -11.901437 0.858453 2.005333 20.389952 25.365181 -6.694674 -6.846598 -5.521793 1.071959 -7.825944 -3.160099 -26.306639 1.210062 23.694159 -1.937129 -6.545113 -2.777240 -0.091235 18.651407 -29.398328 11.420581 -13.290647 6.150050 -4.692592 -8.662126 2.810936 3.035079 7.259483 1.925426 2.820136 20.554647 -6.945190 -1.569581 -41.593792 -5.267059 7.797805 -11.884257 8.070945 6.771585 21.047745 -0.081833 1.386045 -3.343830 -0.124046 32.547375 5.493666 -72.955640 -7.167018 57.742086 -2.280239 -23.560927 14.178161 3.876475 -6.575849 5.881103 -4.641873 15.877357 0.107247 0.000635 -0.009710 0.008707 0.002368 -0.009836 -0.005408 0.629473 -43.866199 -4.510309 72.886544 0.753064 62.721777 1.487617 21.109854 17.054621 -4.090495 8.311558 7.689244 5.997073 -15.970217 -0.328122 -0.027609 -0.041794 0.026881 -0.009344 0.000057 0.010852 
31.787534 0.992818 2.721485 -0.450655 -37.488584 2.911753 -1.938058 23.559265 1.980282 -17.290085 0.673506 -11.760843 0.824604 2.049985 20.231798 25.296174 -6.590191 -7.060508 -5.446834 1.029761 -7.768302 -3.214480 -26.248339 1.270075 23.757922 -1.747071 -6.470037 -2.740274 -0.083818 18.551504 -29.417922 11.299389 -13.268494 6.083837 -4.652221 -8.616322 2.836688 2.998165 7.082088 1.783529 2.770265 20.560475 -6.852447 -1.502317 -41.485405 -5.245414 7.783728 -11.860063 8.087278 6.751346 21.012442 -0.085732 1.374750 -3.383660 -0.204500 32.532398 5.522590 -72.939039 -7.177738 57.690034 -2.119364 -23.338120 14.214714 3.847345 -6.651956 5.882934 -4.643991 15.882027 0.107228 0.000511 -0.009588 0.008842 0.002396 -0.009874 -0.005429 0.799119 -43.768151 -4.413552 72.756385 0.860476 62.523639 1.339740 20.985233 17.028585 -4.143049 8.231051 7.712738 5.921944 -15.985605 -0.321130 -0.027570 -0.041899 0.026961 -0.009302 -0.000024 0.010872 
31.787722 0.993157 2.721535 -0.397788 -37.465779 2.903988 -1.823298 23.602730 2.092705 -17.254983 0.788834 -11.534539 0.795444 2.091946 19.837194 25.160078 -6.481410 -7.659607 -5.324282 0.942593 -7.663091 -3.326009 -26.131899 1.275572 23.805445 -1.498077 -6.398904 -2.678482 -0.086900 18.383999 -29.508407 11.054378 -13.153415 5.975363 -4.610602 -8.526384 2.868768 2.867642 6.747726 1.509268 2.595819 20.647381 -6.633244 -1.374631 -41.440922 -5.149115 7.554842 -11.799990 8.026172 6.535822 20.988449 -0.124901 1.320212 -3.432342 -0.311636 32.702282 5.524794 -72.982982 -7.127886 57.693681 -1.954627 -22.829254 14.226977 3.804706 -6.733678 5.901255 -4.660403 15.909547 0.108419 0.000071 -0.009405 0.009031 0.002514 -0.009933 -0.005392 1.080785 -43.573412 -4.235999 72.470477 1.141385 62.379810 1.121685 20.721973 17.040387 -4.280200 8.000550 7.830745 5.822033 -16.023514 -0.313269 -0.027521 -0.042189 0.027116 -0.009185 -0.000322 0.011058 
